<svg xmlns="http://www.w3.org/2000/svg" viewBox="0 0 24 24" fill="currentColor">
  <path d="M12 .5C5.373.5 0 5.873 0 12.5c0 5.25 3.388 9.688 8.128 11.285.594.109.812-.258.812-.577 0-.283-.01-1.03-.015-2.018-3.313.72-4.015-1.6-4.015-1.6-.54-1.37-1.316-1.735-1.316-1.735-1.078-.738.082-.723.082-.723 1.192.084 1.818 1.224 1.818 1.224 1.059 1.812 2.776 1.287 3.45.985.107-.767.415-1.287.757-1.58-2.665-.303-5.466-1.333-5.466-5.933 0-1.313.469-2.386 1.236-3.227-.124-.303-.536-1.53.117-3.185 0 0 1.008-.322 3.3 1.227.957-.266 1.986-.398 3.006-.402 1.02.004 2.049.136 3.006.402 2.292-1.549 3.3-1.227 3.3-1.227.653 1.655.241 2.882.118 3.185.767.841 1.236 1.914 1.236 3.227 0 4.608-2.805 5.63-5.475 5.925.427.367.81 1.096.81 2.206 0 1.592-.014 2.874-.014 3.26 0 .32.215.692.82.577C20.613 22.188 24 17.75 24 12.5 24 5.873 18.627.5 12 .5z"/>
</svg>